PathFileType	4	(X/Y/Z)	E:\3-PhD\Data\MocapData\ElaboratedData\009\pre\dynamicElaborations\RunL3\RunL3.trc
DataRate	CameraRate	NumFrames	NumMarkers	Units	OrigDataRate	DataStartFrame
200	200	4	54	mm	200	301
Frame#	Time	FHD			LBHD			RBHD			C7			T10			CLAV			LSHO			LUUPA			LMUPA			LDUPA			LLEP			LMEP			LRAD			LUL			LRFIN			RSHO			RUPA1			RMUPA			RDUPA			RLEP			RMEP			RRAD			RUL			RUFIN			RASI			USACR			LSACR			RSACR			LTHI1			LTHI2			LTHI3			LTHI4			LTIB1			LTIB2			LTIB3			LTIB4			LLMAL			LHEE			LMT1			LMT2			RTHI			RTHI2			RTHI3			RTHI4			RLFC			RTIB1			RTIB2			RTIB3			RTIB4			RLMAL			RHEE			RMT1			RMT2			RMT5		
		X1	Y1	Z1	X2	Y2	Z2	X3	Y3	Z3	X4	Y4	Z4	X5	Y5	Z5	X6	Y6	Z6	X7	Y7	Z7	X8	Y8	Z8	X9	Y9	Z9	X10	Y10	Z10	X11	Y11	Z11	X12	Y12	Z12	X13	Y13	Z13	X14	Y14	Z14	X15	Y15	Z15	X16	Y16	Z16	X17	Y17	Z17	X18	Y18	Z18	X19	Y19	Z19	X20	Y20	Z20	X21	Y21	Z21	X22	Y22	Z22	X23	Y23	Z23	X24	Y24	Z24	X25	Y25	Z25	X26	Y26	Z26	X27	Y27	Z27	X28	Y28	Z28	X29	Y29	Z29	X30	Y30	Z30	X31	Y31	Z31	X32	Y32	Z32	X33	Y33	Z33	X34	Y34	Z34	X35	Y35	Z35	X36	Y36	Z36	X37	Y37	Z37	X38	Y38	Z38	X39	Y39	Z39	X40	Y40	Z40	X41	Y41	Z41	X42	Y42	Z42	X43	Y43	Z43	X44	Y44	Z44	X45	Y45	Z45	X46	Y46	Z46	X47	Y47	Z47	X48	Y48	Z48	X49	Y49	Z49	X50	Y50	Z50	X51	Y51	Z51	X52	Y52	Z52	X53	Y53	Z53	X54	Y54	Z54	

308	1.535000	-515.242328	1442.621197	616.694167	-672.000254	1451.390577	495.382621	-661.551328	1428.655173	619.625350	-738.982886	1336.502629	557.403040	-942.828946	1042.956694	573.847024	-658.917478	1202.138612	539.727321	-694.466165	1289.701198	423.953515	-784.320230	1144.910161	313.627545	-746.960300	1116.585725	304.517237	-793.487710	1081.463955	287.777280	-799.208890	964.409844	261.258622	-811.898781	932.280832	331.926758	-560.464904	1000.414159	353.827889	-540.975909	937.054105	320.369633	-499.550415	1032.943847	320.122716	-653.901078	1274.267720	698.933911	-772.919111	1210.457376	820.190388	-781.682462	1164.058828	818.610021	-824.431849	1184.732104	854.834582	-937.257290	1122.529038	907.002407	-986.313965	1137.408674	852.331870	-925.934951	873.836334	825.150419	-961.493986	866.010449	880.972161	-880.608146	816.254358	851.949912	-816.174675	816.872106	661.522958	-977.825850	938.795810	557.140480	-977.685264	915.166619	521.407384	-983.541053	900.277556	578.222998	-750.191183	718.343967	287.070514	-684.937996	667.640701	269.982455	-647.549012	680.276234	295.693161	-686.049245	610.667582	247.466387	-580.645552	341.735655	182.946388	-634.813985	331.171671	115.916334	-601.315712	313.858950	137.057887	-607.380987	229.864973	130.950963	-676.130632	102.211598	48.114994	-758.869290	53.321295	61.244715	-541.835749	53.965988	112.889965	-531.992828	56.685881	67.174429	-755.636436	604.354264	705.802727	-694.238337	588.007838	720.639482	-668.301315	611.057813	723.031945	-655.457206	515.051360	696.824536	-580.505659	452.587808	679.621479	-676.394626	329.008462	529.865845	-768.272557	330.837429	535.777757	-733.318045	303.500331	510.316761	-749.036854	284.300844	464.453198	-862.051637	273.102512	443.711338	-920.103608	323.560266	384.718336	-769.644701	155.137635	347.886618	-783.741817	139.990750	383.588297	-845.457371	139.380602	419.777290	
309	1.540000	-490.101422	1436.616614	624.522106	-645.003461	1445.156664	500.800203	-636.777403	1422.545917	625.779028	-713.414305	1330.922343	561.670549	-919.428686	1038.931235	576.806004	-633.567075	1195.344784	545.680037	-666.164265	1283.838607	428.773937	-749.719177	1137.476361	316.127001	-711.574118	1109.878482	308.403935	-756.421346	1073.747185	289.724107	-759.060409	956.660506	263.526544	-772.427306	923.763040	333.455812	-525.915277	1002.531641	363.606883	-502.906022	940.241523	330.352389	-465.531569	1037.630935	331.921434	-630.229015	1267.746947	705.237111	-752.099230	1202.820244	824.303238	-761.987345	1156.298779	820.471410	-804.418230	1176.619590	857.754382	-918.864427	1117.161354	907.682996	-966.418392	1132.887438	852.107124	-914.869232	867.242564	828.925173	-952.552014	861.217592	884.057730	-872.838761	807.767148	857.595618	-791.901072	812.344231	663.846546	-954.788054	933.939328	560.886991	-954.547115	910.475966	525.088576	-959.988323	895.279695	581.908253	-731.672912	713.048299	286.460315	-667.439316	662.079767	266.719103	-628.598739	675.703983	289.582051	-669.532368	604.596505	245.828562	-567.089420	336.849802	180.064005	-622.825049	328.720301	114.013811	-589.658982	309.966710	134.351736	-600.073574	225.918149	128.771670	-675.467952	101.373307	47.481907	-759.306960	53.270145	60.618709	-542.311465	54.053050	111.868136	-532.413309	56.399441	66.159767	-729.124616	604.702386	712.287411	-667.552091	590.175449	728.380573	-642.294626	613.998349	730.786471	-626.384817	518.076510	705.870340	-549.378275	457.708296	690.245855	-641.247438	329.624455	538.519738	-729.422852	328.465178	542.946845	-692.960234	302.123510	518.738905	-706.444554	281.646171	473.158968	-818.532796	266.584567	448.805033	-876.763844	313.629491	386.962134	-718.754546	150.744174	358.572504	-733.421337	135.979265	394.203791	-796.024982	133.707102	428.716220	
310	1.545000	-465.278968	1431.230927	632.862437	-618.110037	1439.506090	506.557409	-612.263045	1417.144107	632.202140	-688.124490	1325.832282	566.324214	-895.964281	1035.385066	580.425870	-608.346928	1188.950650	552.201107	-637.729075	1278.428539	434.169918	-714.459004	1130.878560	319.175757	-675.688852	1103.854091	313.067392	-718.750072	1066.954147	292.244776	-718.774139	949.775868	266.332344	-732.831805	916.078761	335.415236	-491.789495	1004.767895	373.598012	-465.453533	943.644696	340.606371	-432.091152	1042.302293	343.875184	-606.997007	1261.847528	712.079623	-731.745541	1195.819303	828.825522	-742.650556	1149.219038	822.774310	-784.848941	1169.154837	861.043133	-900.843341	1112.199192	908.594754	-946.878113	1128.691757	852.119478	-903.964727	861.387051	832.660670	-943.902435	857.189038	887.327600	-865.193060	800.274260	863.159998	-767.245832	808.377149	666.206967	-931.622914	929.605518	565.346619	-931.410798	906.286334	529.527813	-936.311546	890.841774	586.375799	-713.511667	708.263432	286.086078	-650.403044	656.987545	263.674112	-610.243233	671.460644	283.740347	-653.437555	599.020933	244.329396	-554.473919	332.777867	176.956142	-611.739652	326.911513	111.985601	-578.913005	306.864399	131.555653	-593.195158	222.926780	126.531095	-674.845160	101.333132	47.151733	-759.806110	53.916308	60.513913	-542.722700	54.245667	111.035495	-532.881727	56.270961	65.290919	-702.862107	605.312425	718.882584	-641.191181	592.535841	736.124538	-616.616860	617.101016	738.562234	-597.751323	521.385475	714.819994	-518.776684	463.116180	700.686397	-604.227596	330.519936	547.885442	-690.260419	325.697863	550.165146	-652.351595	300.517902	527.447789	-663.425085	278.750436	482.238041	-774.210942	259.325613	454.171197	-832.469552	302.717431	389.581848	-666.960624	146.318377	369.882930	-682.177227	131.899233	405.474014	-745.579719	127.708138	438.232990	
311	1.550000	-440.742352	1426.555624	641.690736	-591.313335	1434.505336	512.678928	-587.972997	1412.545451	638.915769	-663.057349	1321.319150	571.412977	-872.372339	1032.275049	584.623019	-583.221546	1183.052059	559.321227	-609.197508	1273.564724	440.244785	-678.726574	1125.284260	322.942226	-639.506296	1098.678727	318.586703	-680.700150	1061.256415	295.494079	-678.616338	943.929906	269.720375	-693.371553	909.403470	337.884323	-458.156064	1007.150690	383.782443	-428.724185	947.259050	351.094361	-399.270730	1046.960835	355.945663	-584.199154	1256.639049	719.473793	-711.815472	1189.629383	833.784391	-723.589183	1142.999160	825.687176	-765.675796	1162.569342	864.761252	-883.148437	1107.777832	909.815226	-927.674245	1124.977622	852.474881	-892.974859	856.446463	836.247262	-935.233558	854.022192	890.618505	-857.339491	793.954570	868.436738	-742.233137	805.011144	668.643170	-908.255981	925.797628	570.365933	-908.175838	902.577182	534.577566	-912.482509	886.982124	591.477668	-695.582161	704.240139	286.084527	-633.692730	652.610815	261.058436	-592.392633	667.714776	278.536176	-637.641400	594.268222	243.007316	-542.835184	329.324599	173.652661	-601.648086	325.548320	109.890159	-569.133673	304.346133	128.723066	-586.819708	220.682964	124.250816	-674.216304	101.927939	47.030113	-760.269868	55.183496	60.796675	-543.008555	54.461831	110.328725	-533.317299	56.217248	64.502960	-676.865981	606.159033	725.568015	-615.162677	595.057686	743.842997	-591.268115	620.340577	746.331535	-569.562279	524.935676	723.647560	-488.706560	468.740271	710.898276	-564.624019	331.871913	558.128920	-650.792362	322.586219	557.502968	-611.549526	298.746417	536.491184	-620.021094	275.742543	491.491616	-729.089790	251.454493	459.931260	-787.203519	290.964890	392.709499	-614.356483	142.043602	381.815820	-630.087628	127.907833	417.381943	-694.159317	121.534480	448.354266	
